[center][img]http://img825.imageshack.us/img825/1327/beastlypos.jpg[/img]



[img]http://leetleech.org/images/48874973695367351744.png[/img]


Format                           : AVI
Format/Info                      : Audio Video Interleave
File size                        : 857 MiB
Duration                         : 1h 25mn
Overall bit rate                 : 1 409 Kbps
Writing application              : VirtualDubMod 1.5.10.3 | www.virtualdub-fr.org || (build 2550/release)
Writing library                  : VirtualDubMod build 2550/release

Video
ID                               : 0
Format                           : MPEG-4 Visual
Format profile                   : Advanced Simple@L5
Format settings, BVOP            : Yes
Format settings, QPel            : No
Format settings, GMC             : No warppoints
Format settings, Matrix          : Custom
Codec ID                         : XVID
Codec ID/Hint                    : XviD
Duration                         : 1h 25mn
Bit rate                         : 1 270 Kbps
Width                            : 720 pixels
Height                           : 420 pixels
Display aspect ratio             : 16:9
Frame rate                       : 29.970 fps
Color space                      : YUV
Chroma subsampling               : 4:2:0
Bit depth                        : 8 bits
Scan type                        : Progressive
Bits/(Pixel*Frame)               : 0.140
Stream size                      : 772 MiB (90%)
Writing library                  : XviD 1.2.1 (UTC 2008-12-04)

Audio
ID                               : 1
Format                           : MPEG Audio
Format version                   : Version 1
Format profile                   : Layer 3
Mode                             : Joint stereo
Mode extension                   : MS Stereo
Codec ID                         : 55
Codec ID/Hint                    : MP3
Duration                         : 1h 25mn
Bit rate mode                    : Constant
Bit rate                         : 128 Kbps
Channel(s)                       : 2 channels
Sampling rate                    : 44.1 KHz
Stream size                      : 77.8 MiB (9%)
Alignment                        : Split accross interleaves
Interleave, duration             : 33 ms (1.00 video frame)
Interleave, preload duration     : 500 ms
Writing library                  : LAME3.98.2




[url]http://www.imdb.com/title/tt1152398/[/url]




[IMG]http://leetleech.org/images/89524873606771859129.png[/IMG]



Users: 4.8/10 (2,943 votes) 45 reviews | Critics: 95 reviews Metascore: 40/100 (based on 26 reviews from Metacritic.com)

A modern-day take on the "Beauty and the Beast" tale where a New York teen is transformed into a hideous monster in order to find true love.
Director:
Daniel Barnz
Writers:
Daniel Barnz (screenplay), Alex Flinn (novel)
Stars:
Alex Pettyfer, Vanessa Hudgens and Mary-Kate Olsen 


[img]http://leetleech.org/images/95521316153253938506.png[/img]




[img]http://img819.imageshack.us/img819/6184/vlcsnap2011050509h22m22.png[/img]

[img]http://img30.imageshack.us/img30/2706/vlcsnap2011050509h22m13.png[/img]

[img]http://img823.imageshack.us/img823/4508/vlcsnap2011050509h21m51.png[/img]


Source used 

IFLiX ......Thanks 


Never seems worth doing these ppvs but here goes not bad really already for a ppv .....

Slight saturation and hue changes ,brightness/contrast and rgb colours 

Sample included 

Enjoy !



Greetz to Imagine ,Flawl3ss,DiLLoN,BDK,NOiR,TOXiCiNK,THC,Ez,Rx,Boobyblue,TaRiQ786,LKRG





[img]http://img411.imageshack.us/img411/6898/sig1n.jpg[/img]











[/center]